<?xml version="1.0" encoding="UTF-8"?><svg id="Logo" xmlns="http://www.w3.org/2000/svg" viewBox="0 0 180 92.13"><path d="M79.95,51.47c-1.09,0-2.02.94-2.02,2.05v11.99c0,1.12.94,2.02,2.02,2.02,1.15,0,2.05-.91,2.05-2.02v-11.99c0-1.12-.91-2.05-2.05-2.05ZM29.79,41.65c0,3.09.92,5.84,2.74,8.18,1.53,1.97,3.55,3.42,5.81,4.26v-24.7c-4.99,1.85-8.56,6.63-8.56,12.25ZM28.5,52.97c-2.5-3.21-3.82-7.07-3.82-11.15,0-4.61,1.7-8.81,4.49-12.03-4.56,2.99-7.57,8.15-7.57,14.01,0,9.26,7.5,16.76,16.76,16.76v-1.11c-3.87-.98-7.33-3.22-9.85-6.47ZM73.91,63.77h-.57c-1.93,0-2.39-1.03-2.39-3.5l-.03-5.26h2.33c.94,0,1.69-.75,1.69-1.66s-.76-1.69-1.69-1.69h-2.33v-2.05c0-1.12-.91-2.05-2.02-2.05s-2.05.94-2.05,2.05v2.05h-.48c-.91,0-1.66.75-1.66,1.69s.76,1.66,1.66,1.66h.48v5.35c0,4.2,1.57,7.01,5.92,7.01h1.15c.97,0,1.78-.81,1.78-1.81s-.82-1.78-1.78-1.78ZM128,62.35c-1.48,0-2.66,1.18-2.66,2.66s1.18,2.63,2.66,2.63,2.66-1.18,2.66-2.63-1.21-2.66-2.66-2.66ZM136.94,45.07c-1.18,0-2.08.97-2.08,2.09v18.39c0,1.15.91,2.08,2.08,2.08s2.09-.94,2.09-2.08v-18.39c0-1.12-.94-2.09-2.09-2.09ZM150.53,45.07c-5.89,0-7.85,4.02-7.85,8.16v6.25c0,4.14,1.96,8.19,7.85,8.19s7.88-4.05,7.88-8.19v-6.25c0-4.14-1.99-8.16-7.88-8.16ZM154.24,59.48c0,2.6-.81,4.41-3.71,4.41s-3.69-1.81-3.69-4.41v-6.25c0-2.57.79-4.35,3.69-4.35s3.71,1.81,3.71,4.35v6.25ZM102.09,51.47c-1.99,0-3.5.63-4.59,1.69-.76-1.06-2.02-1.69-4.02-1.69s-3.38.6-4.47,1.57c-.18-.27-.42-.51-.66-.72-.6-.42-1.3-.66-1.93-.66-1.18,0-2.02.51-2.02,1.69,0,.54.24.94.57,1.18.45.39.88.7.88,1.72v9.27c0,1.12.91,2.02,2.05,2.02s2.02-.91,2.02-2.02v-9.03c.54-.73,1.39-1.18,2.45-1.18,1.75,0,2.11,1.12,2.11,2.36v7.85c0,1.12.91,2.02,2.02,2.02s2.05-.91,2.05-2.02v-8.37c0-.21-.03-.42-.06-.6.55-.73,1.39-1.24,2.51-1.24,1.75,0,2.08,1.12,2.08,2.36v7.85c0,1.12.94,2.02,2.02,2.02,1.15,0,2.05-.91,2.05-2.02v-8.37c0-3.41-1.27-5.68-5.08-5.68ZM115.86,51.47c-4.41,0-6.37,3.11-6.37,6.65v2.81c0,3.53,1.66,6.61,6.37,6.61,1.21,0,2.72-.18,3.9-.6,1-.42,1.75-1.03,1.75-1.9s-.51-1.57-1.45-1.57c-.57,0-.97.24-1.63.48-.51.15-1.21.33-2.3.33-1.75,0-2.57-1.12-2.57-2.93v-.6h7.22c.76,0,1.39-.61,1.39-1.45v-1.24c0-3.56-1.75-6.59-6.31-6.59ZM118.24,57.73h-4.68v-.39c0-1.69.79-2.69,2.39-2.69s2.3.97,2.3,2.69v.39ZM79.74,36.06c-2.56,0-4.72,1.7-5.42,4.03h-14.34c-.79-8.75-8.16-15.63-17.12-15.63-9.48,0-17.19,7.71-17.19,17.36,0,3.85,1.25,7.5,3.61,10.54,3.28,4.23,8.23,6.65,13.58,6.65,9.01,0,16.42-6.97,17.13-15.8h14.29c.66,2.4,2.85,4.17,5.45,4.17,3.12,0,5.66-2.54,5.66-5.66s-2.54-5.66-5.66-5.66ZM56.86,43.38c-.78,7.03-6.75,12.52-13.99,12.52-4.38,0-8.43-1.99-11.12-5.45-1.93-2.49-2.95-5.47-2.95-8.8,0-7.76,6.31-14.08,14.08-14.08,7.29,0,13.31,5.58,14.01,12.69h-14.01v3.11h13.99ZM79.74,44.27c-1.4,0-2.55-1.14-2.55-2.55s1.14-2.54,2.55-2.54,2.55,1.14,2.55,2.54-1.14,2.55-2.55,2.55Z" fill="#fff" stroke-width="0"/></svg>